<svg width="38" height="38" viewBox="0 0 38 38" fill="none" xmlns="http://www.w3.org/2000/svg">
<path fill-rule="evenodd" clip-rule="evenodd" d="M37.3333 18.9998C37.3333 29.1251 29.1252 37.3332 19 37.3332C8.87474 37.3332 0.666626 29.1251 0.666626 18.9998C0.666626 8.87462 8.87474 0.666504 19 0.666504C29.1252 0.666504 37.3333 8.87462 37.3333 18.9998ZM19.6569 14.201C17.8737 14.9427 14.3099 16.4778 8.96533 18.8063C8.09746 19.1514 7.64283 19.4891 7.60145 19.8192C7.5315 20.3771 8.2302 20.5968 9.18164 20.896C9.31106 20.9367 9.44515 20.9789 9.58262 21.0236C10.5187 21.3278 11.7779 21.6838 12.4325 21.698C13.0262 21.7108 13.689 21.466 14.4206 20.9636C19.4142 17.5928 21.9919 15.889 22.1537 15.8523C22.2679 15.8264 22.4261 15.7938 22.5333 15.8891C22.6405 15.9843 22.63 16.1648 22.6186 16.2132C22.5494 16.5083 19.8068 19.0581 18.3875 20.3776C17.945 20.7889 17.6312 21.0807 17.567 21.1473C17.4233 21.2966 17.2768 21.4378 17.136 21.5735C16.2664 22.4119 15.6142 23.0405 17.1721 24.0672C17.9208 24.5605 18.5198 24.9685 19.1175 25.3755C19.7702 25.82 20.4212 26.2633 21.2635 26.8155C21.4781 26.9561 21.6831 27.1022 21.8827 27.2446C22.6423 27.7861 23.3247 28.2726 24.1678 28.195C24.6577 28.1499 25.1637 27.6893 25.4207 26.3154C26.028 23.0685 27.2219 16.0336 27.4978 13.1347C27.5219 12.8807 27.4915 12.5556 27.4671 12.4129C27.4427 12.2702 27.3917 12.0669 27.2062 11.9164C26.9865 11.7382 26.6474 11.7006 26.4958 11.7032C25.8062 11.7154 24.7483 12.0833 19.6569 14.201Z" fill="#E9ECE6"/>
</svg>
