<svg width="38" height="38" viewBox="0 0 38 38" fill="none" xmlns="http://www.w3.org/2000/svg">
<path fill-rule="evenodd" clip-rule="evenodd" d="M3.23329 3.23317C0.666626 5.82428 0.666626 9.96761 0.666626 18.2665V19.7332C0.666626 28.0198 0.666626 32.1632 3.23329 34.7665C5.8244 37.3332 9.96774 37.3332 18.2666 37.3332H19.7333C28.02 37.3332 32.1633 37.3332 34.7666 34.7665C37.3333 32.1754 37.3333 28.0321 37.3333 19.7332V18.2665C37.3333 9.97984 37.3333 5.8365 34.7666 3.23317C32.1755 0.666504 28.0322 0.666504 19.7333 0.666504H18.2666C9.97996 0.666504 5.83663 0.666504 3.23329 3.23317ZM6.85107 11.8254C7.04662 21.3587 11.8133 27.0787 20.1733 27.0787H20.6622V21.6276C23.73 21.9332 26.0522 24.1821 26.9811 27.0787H31.32C30.8749 25.4327 30.086 23.8998 29.0053 22.5809C27.9245 21.2621 26.5764 20.1874 25.05 19.4276C26.4178 18.5946 27.5992 17.4885 28.5203 16.1784C29.4414 14.8682 30.0824 13.3822 30.4033 11.8132H26.4677C25.6122 14.8443 23.07 17.5943 20.6622 17.851V11.8254H16.7144V22.3854C14.27 21.7743 11.19 18.8165 11.0555 11.8254H6.85107Z" fill="#E9ECE6"/>
</svg>
